<svg xmlns="http://www.w3.org/2000/svg" xmlns:xlink="http://www.w3.org/1999/xlink" version="1.1" id="Layer_1" x="0px" y="0px" width="100.035px" height="66.188px" viewBox="0 0 100.035 66.188" enable-background="new 0 0 100.035 66.188" xml:space="preserve">
<path d="M99.488,6.323L56.951,6.325c-1.189,0-1.439,0.027-1.971-0.84l-2.068-4.336C52.605,0.504,52.605,0,50.318,0H8.672  c-1.688,0-2.456,0.486-2.653,1.43L5.375,4.858c-0.24,1.068-0.988,1.399-2.488,1.468H0.55c-0.292,0-0.532,0.153-0.532,0.506v58.251  c0,0.738,0.318,1.104,1.118,1.104h97.649c0.961,0,1.232-0.271,1.232-1.201V6.829C100.018,6.552,99.779,6.323,99.488,6.323z   M96.438,62.647c0,0.277-0.24,0.506-0.529,0.506H3.778c-0.292,0-0.532-0.229-0.532-0.506v-44.24c0-0.277,0.239-0.506,1.595-0.506  h90.903c0.695,0,0.693,0.229,0.693,0.506V62.647z M96.438,15.201c0,0.279-0.24,0.506-0.529,0.506H15.699  c-0.292,0-0.531-0.228-0.531-0.506v-3.542c0-0.277,0.24-0.506,0.531-0.506h80.209c0.289,0,0.529,0.229,0.529,0.506V15.201z"/>
</svg>