<svg xmlns="http://www.w3.org/2000/svg" xmlns:xlink="http://www.w3.org/1999/xlink" version="1.1" id="Layer_1" x="0px" y="0px" width="100px" height="100px" viewBox="0 0 100 100" enable-background="new 0 0 100 100" xml:space="preserve">
<path fill-rule="evenodd" clip-rule="evenodd" d="M3.346,92.371c0-26.525,0-53.051,0-79.577c0.284-0.12,0.561-0.259,0.853-0.356  C16.06,8.516,27.921,4.6,39.779,0.669C40.245,0.515,40.665,0.226,41.106,0c18.517,0,37.033,0,55.548,0c0,33.182,0,66.367,0,99.55  c-0.721,0.052-1.443,0.149-2.164,0.149c-16.486,0.009-32.973,0.032-49.459-0.021c-2.107-0.006-4.242-0.26-6.318-0.645  C26.916,96.854,15.133,94.601,3.346,92.371z M40.812,96.723c0-31.237,0-62.286,0-93.407c-0.449,0.088-0.763,0.115-1.055,0.211  C28.864,7.123,17.98,10.744,7.074,14.296c-1.11,0.362-1.079,1.04-1.079,1.895C6.004,25.24,6.001,34.29,6.001,43.337  c0,14.925,0.032,29.851-0.045,44.774c-0.008,1.682,0.537,2.211,2.096,2.42c2.467,0.331,4.903,0.89,7.351,1.355  C23.814,93.487,32.227,95.09,40.812,96.723z M43.998,6.189c0.69,0,1.3,0,1.91,0c12.478,0,24.956-0.006,37.435,0.002  c4.379,0.003,6.758,2.386,6.758,6.725c0,24.696-0.061,49.393,0.061,74.087c0.021,4.195-2.947,7.021-6.936,6.977  c-12.477-0.135-24.955-0.05-37.434-0.05c-0.601,0-1.203,0-1.802,0c0,1.138,0,2.056,0,3.001c16.618,0,33.161,0,49.702,0  c0-31.448,0-62.776,0-94.188c-16.607,0-33.113,0-49.694,0C43.998,3.897,43.998,4.959,43.998,6.189z M44.027,56.861  c0,11.274,0,22.415,0,33.578c0.313,0.025,0.516,0.056,0.719,0.056c12.943,0.002,25.887,0.009,38.83-0.002  c2.129-0.002,3.088-1.024,3.09-3.212c0.004-9.721,0.002-19.439-0.002-29.161c0-0.4-0.041-0.8-0.066-1.259  C72.375,56.861,58.254,56.861,44.027,56.861z M86.621,25.07c-14.301,0-28.457,0-42.608,0c0,4.236,0,8.368,0,12.521  c14.254,0,28.409,0,42.608,0C86.621,33.381,86.621,29.284,86.621,25.07z M86.615,41.253c-14.305,0-28.453,0-42.594,0  c0,4.082,0,8.051,0,12.004c14.256,0,28.405,0,42.594,0C86.615,49.221,86.615,45.289,86.615,41.253z M43.966,21.425  c14.311,0,28.461,0,42.702,0c0-2.749,0-5.391,0-8.033c0-2.996-0.766-3.769-3.768-3.77C70.486,9.62,58.07,9.621,45.655,9.621  c-0.546,0-1.093,0-1.688,0C43.966,13.673,43.966,17.501,43.966,21.425z"/>
<path fill-rule="evenodd" clip-rule="evenodd" d="M85.674,59.053c0,6.179,0,12.244,0,18.405c-12.977,0-25.9,0-38.964,0  c0-6.089,0-12.184,0-18.405C59.639,59.053,72.588,59.053,85.674,59.053z M50.067,66.411c10.815,0,21.472,0,32.138,0  c0-1.381,0-2.652,0-3.941c-10.75,0-21.412,0-32.138,0C50.067,63.813,50.067,65.048,50.067,66.411z M82.238,70.042  c-10.771,0-21.396,0-32.128,0c0,1.349,0,2.609,0,3.956c10.751,0,21.407,0,32.128,0C82.238,72.651,82.238,71.418,82.238,70.042z"/>
<path d="M80.768,85.92c-1.926,0-3.492-1.564-3.492-3.489c0-1.926,1.566-3.49,3.492-3.49c1.924,0,3.49,1.564,3.49,3.49  C84.258,84.355,82.691,85.92,80.768,85.92z M80.768,81.31c-0.619,0-1.121,0.502-1.121,1.121c0,0.616,0.502,1.118,1.121,1.118  c0.617,0,1.119-0.502,1.119-1.118C81.887,81.812,81.385,81.31,80.768,81.31z"/>
</svg>